<svg xmlns="http://www.w3.org/2000/svg" viewBox="0 0 229.09 45.53"><defs><style>.cls-1,.cls-2{fill:#fff;}.cls-1{fill-rule:evenodd;}</style></defs><title>logo_Asset 1</title><g id="Layer_2" data-name="Layer 2"><g id="Layer_1-2" data-name="Layer 1"><path class="cls-1" d="M19.38,1.11V16a4.57,4.57,0,0,1-4.56,4.58H0c.13-1,.33-2,.56-3A22.45,22.45,0,0,1,19.38,1.11Z"/><path class="cls-1" d="M44.29,20.47H29.45a4.59,4.59,0,0,1-4.58-4.58V1.11A22.36,22.36,0,0,1,44.11,19.27l0,.2,0,.11c.07.31.09.6.13.89Z"/><path class="cls-1" d="M19.38,45.51V30.71a4.57,4.57,0,0,0-4.56-4.58H0a20.75,20.75,0,0,0,.4,2.29,22.31,22.31,0,0,0,19,17.09Z"/><path class="cls-1" d="M44.29,26.18H29.45a4.57,4.57,0,0,0-4.58,4.56v14.8A22.36,22.36,0,0,0,44.11,27.38c0-.07,0-.13,0-.22l0-.09c.07-.29.09-.6.13-.89Z"/><path class="cls-1" d="M66.85,45.53h7.51L66.09,32.29l.16-.09a8.57,8.57,0,0,0,6-8.51,8.5,8.5,0,0,0-5.38-8.27,14.54,14.54,0,0,0-3.58-1,14.73,14.73,0,0,0-1.69-.13H51v6.09H63.62a2.89,2.89,0,0,1,2.87,2.87h0a2.88,2.88,0,0,1-2.87,2.84h-.13a4,4,0,0,1-.51,0H51v19.4h6.4V33.09h1.73Z"/><rect class="cls-2" x="130.76" y="14.24" width="6.2" height="31.25"/><path class="cls-1" d="M205.32,14.29V45.53H211c10.4,0,18.09-4.27,18.09-15.62,0-7.31-3-12.67-10.29-14.71a29.72,29.72,0,0,0-7.8-.91Zm6.4,25V20.51l.13,0c.38,0,.76,0,1.11,0a12.28,12.28,0,0,1,4,.62c4.11,1.36,5.67,4.69,5.67,8.82s-1.6,7.38-5.67,8.76a13.15,13.15,0,0,1-4,.67c-.38,0-.73,0-1.09,0Z"/><polygon class="cls-1" points="168.72 45.53 175.14 45.53 175.14 14.24 168.89 14.24 158.49 36.51 147.67 14.24 141.43 14.24 141.43 45.53 147.83 45.53 147.83 29.22 155.76 45.53 161.34 45.53 168.72 29.73 168.72 45.53"/><path class="cls-1" d="M102.49,14.29V45.53h5.69c10.38,0,18.09-4.27,18.09-15.62,0-7.31-3-12.67-10.29-14.71a29.61,29.61,0,0,0-7.8-.91Zm6.4,25V20.51l.16,0c.36,0,.73,0,1.11,0a12.56,12.56,0,0,1,4,.62c4.11,1.36,5.67,4.69,5.67,8.82s-1.62,7.38-5.67,8.76a13.29,13.29,0,0,1-4,.67c-.36,0-.73,0-1.09,0Z"/><polygon class="cls-1" points="98.03 20.38 98.03 14.29 76.76 14.29 76.76 45.53 98.03 45.53 98.03 39.45 83.16 39.45 83.16 32.56 95.51 32.56 95.51 26.18 83.16 26.18 83.16 20.38 98.03 20.38"/><polygon class="cls-1" points="54.49 2.24 54.49 9.8 52.8 9.8 52.8 2.24 50.98 2.24 50.98 0.76 56.29 0.76 56.29 2.24 54.49 2.24"/><path class="cls-1" d="M61.2,6.42a3.24,3.24,0,0,0-.33-1.6,1,1,0,0,0-1-.56,1,1,0,0,0-1,.56,3.26,3.26,0,0,0-.31,1.6A3.16,3.16,0,0,0,58.93,8a1,1,0,0,0,1,.56,1,1,0,0,0,1-.56,3.15,3.15,0,0,0,.33-1.58Zm1.62,0a4.64,4.64,0,0,1-.2,1.4,3.25,3.25,0,0,1-.56,1.11,3,3,0,0,1-.91.76,2.84,2.84,0,0,1-1.24.27,2.77,2.77,0,0,1-1.24-.27,3.1,3.1,0,0,1-.93-.76,3.27,3.27,0,0,1-.56-1.11,4.63,4.63,0,0,1-.2-1.4A4.59,4.59,0,0,1,57.18,5a3.28,3.28,0,0,1,.56-1.11,2.75,2.75,0,0,1,.93-.73,2.78,2.78,0,0,1,1.24-.27,2.84,2.84,0,0,1,1.24.27,2.66,2.66,0,0,1,.91.73A3.25,3.25,0,0,1,62.62,5a4.59,4.59,0,0,1,.2,1.38Z"/><path class="cls-1" d="M67.25,9.84a4.69,4.69,0,0,1-.58,0,1.74,1.74,0,0,1-1.38-.53,2.43,2.43,0,0,1-.44-1.58V4.33H64V3.07h.82V1.58l1.6-.49v2h1.22V4.33H66.45V7.67a.73.73,0,0,0,.22.58.78.78,0,0,0,.51.16.83.83,0,0,0,.27,0l.22-.07V9.71a3.25,3.25,0,0,1-.42.13Z"/><path class="cls-1" d="M72.47,6.56l-.84.07a3,3,0,0,0-.73.16,1.33,1.33,0,0,0-.49.36,1,1,0,0,0-.18.6.89.89,0,0,0,.33.73,1.67,1.67,0,0,0,1,.27,2.08,2.08,0,0,0,.51,0,1.34,1.34,0,0,0,.4-.09ZM74,9.47a3.07,3.07,0,0,1-.44.18A3.06,3.06,0,0,1,73,9.8a5.15,5.15,0,0,1-.67.11c-.22,0-.47,0-.71,0a3.45,3.45,0,0,1-2.18-.58,1.91,1.91,0,0,1-.73-1.6A1.74,1.74,0,0,1,69,6.67,2.07,2.07,0,0,1,69.85,6a3.94,3.94,0,0,1,1.22-.36,9.31,9.31,0,0,1,1.4-.16V5.11a.85.85,0,0,0-.31-.73,1.51,1.51,0,0,0-.89-.22,3.83,3.83,0,0,0-1,.13,4.47,4.47,0,0,0-.82.27L69,3.4a6,6,0,0,1,1-.31,5.28,5.28,0,0,1,1.36-.16,2.82,2.82,0,0,1,1.89.56A2.23,2.23,0,0,1,74,5.31Z"/><rect class="cls-2" x="75.56" width="1.62" height="9.8"/><polygon class="cls-1" points="85.85 9.8 85.85 5.93 83.18 5.93 83.18 9.8 81.49 9.8 81.49 0.76 83.18 0.76 83.18 4.49 85.85 4.49 85.85 0.76 87.51 0.76 87.51 9.8 85.85 9.8"/><path class="cls-1" d="M93.22,5.67a1.72,1.72,0,0,0-.33-1.13A1.15,1.15,0,0,0,92,4.16a1.23,1.23,0,0,0-1,.49,2.17,2.17,0,0,0-.44,1.42ZM94.8,6v.29c0,.09,0,.18,0,.29l-4.16.58a1.7,1.7,0,0,0,.6,1.11,1.86,1.86,0,0,0,1.18.36,3.66,3.66,0,0,0,1-.11,2.54,2.54,0,0,0,.82-.31l.47,1.29a4.46,4.46,0,0,1-1,.33,5.2,5.2,0,0,1-1.33.16,3.42,3.42,0,0,1-1.4-.27,2.62,2.62,0,0,1-1-.73,3.35,3.35,0,0,1-.62-1.11A4.78,4.78,0,0,1,89,6.42,4.89,4.89,0,0,1,89.25,5a3,3,0,0,1,.6-1.09,2.54,2.54,0,0,1,.93-.73A2.77,2.77,0,0,1,92,2.93a3.19,3.19,0,0,1,1.18.2,2.57,2.57,0,0,1,.89.62,3.17,3.17,0,0,1,.53,1A4.29,4.29,0,0,1,94.8,6Z"/><path class="cls-1" d="M99.31,6.56l-.87.07a3.07,3.07,0,0,0-.71.16,1.17,1.17,0,0,0-.49.36.89.89,0,0,0-.2.6.85.85,0,0,0,.36.73,1.55,1.55,0,0,0,1,.27,2.17,2.17,0,0,0,.53,0,1.78,1.78,0,0,0,.4-.09Zm1.53,2.91a4.54,4.54,0,0,1-.44.18,4.38,4.38,0,0,1-.58.16c-.22,0-.44.09-.67.11s-.49,0-.73,0a3.49,3.49,0,0,1-2.18-.58,2,2,0,0,1-.71-1.6,1.88,1.88,0,0,1,.31-1.11A2.15,2.15,0,0,1,96.69,6a4,4,0,0,1,1.2-.36,9.63,9.63,0,0,1,1.42-.16V5.11A.81.81,0,0,0,99,4.38a1.51,1.51,0,0,0-.89-.22,3.66,3.66,0,0,0-1,.13,4.77,4.77,0,0,0-.85.27L95.87,3.4a7,7,0,0,1,1.07-.31,5.23,5.23,0,0,1,1.33-.16,2.88,2.88,0,0,1,1.91.56,2.23,2.23,0,0,1,.67,1.82Z"/><rect class="cls-2" x="102.38" width="1.62" height="9.8"/><path class="cls-1" d="M108.47,9.84a4.69,4.69,0,0,1-.58,0,1.71,1.71,0,0,1-1.38-.53,2.43,2.43,0,0,1-.44-1.58V4.33h-.82V3.07h.82V1.58l1.6-.49v2h1.2V4.33h-1.2V7.67a.67.67,0,0,0,.22.58.78.78,0,0,0,.51.16,1.12,1.12,0,0,0,.27,0l.2-.07V9.71a2.1,2.1,0,0,1-.4.13Z"/><path class="cls-1" d="M113.94,9.8V5.4a1,1,0,0,0-.31-.82,1.17,1.17,0,0,0-.87-.29,1.85,1.85,0,0,0-.49.07,1.36,1.36,0,0,0-.44.2V9.8h-1.6V0h1.6V3.27a4.32,4.32,0,0,1,.64-.22,3.89,3.89,0,0,1,.71-.09,2.55,2.55,0,0,1,1.78.58,2.2,2.2,0,0,1,.62,1.69V9.8Z"/><path class="cls-1" d="M124.91,7.18a3.12,3.12,0,0,1-.2,1.13,2.58,2.58,0,0,1-.58.87,2.86,2.86,0,0,1-.93.58A3.56,3.56,0,0,1,122,10a4.65,4.65,0,0,1-1.24-.16,3.37,3.37,0,0,1-1-.33l.53-1.53a3.63,3.63,0,0,0,.71.31,3.87,3.87,0,0,0,.87.11,1.46,1.46,0,0,0,1-.29,1,1,0,0,0,.36-.8.85.85,0,0,0-.11-.42.72.72,0,0,0-.24-.33,1.46,1.46,0,0,0-.38-.27A4.5,4.5,0,0,0,122,6a6.11,6.11,0,0,1-.76-.4,4.2,4.2,0,0,1-.71-.53,3,3,0,0,1-.51-.76,2.11,2.11,0,0,1-.22-1A2.88,2.88,0,0,1,120,2.2a2.28,2.28,0,0,1,.58-.84,2.52,2.52,0,0,1,.87-.56,4,4,0,0,1,1.18-.18,4.58,4.58,0,0,1,1.16.13,2.61,2.61,0,0,1,.87.36l-.53,1.42a2.79,2.79,0,0,0-1.42-.42,1.18,1.18,0,0,0-.87.31.94.94,0,0,0-.31.76.85.85,0,0,0,.09.42,1,1,0,0,0,.27.33,1.84,1.84,0,0,0,.4.29c.13.09.29.16.44.24s.47.27.73.4a4.19,4.19,0,0,1,.71.53,2.73,2.73,0,0,1,.53.76,2.4,2.4,0,0,1,.2,1Z"/><path class="cls-1" d="M129.89,6.42a3.53,3.53,0,0,0-.31-1.6,1,1,0,0,0-1-.56,1,1,0,0,0-1,.56,3.24,3.24,0,0,0-.33,1.6A3.15,3.15,0,0,0,127.65,8a1,1,0,0,0,1,.56,1,1,0,0,0,1-.56,3.43,3.43,0,0,0,.31-1.58Zm1.64,0a4.63,4.63,0,0,1-.2,1.4,2.94,2.94,0,0,1-.58,1.11,3,3,0,0,1-.91.76,2.77,2.77,0,0,1-1.24.27,2.84,2.84,0,0,1-1.24-.27,3,3,0,0,1-.91-.76,2.89,2.89,0,0,1-.56-1.11,4.64,4.64,0,0,1-.2-1.4,4.59,4.59,0,0,1,.2-1.38,2.9,2.9,0,0,1,.56-1.11,2.67,2.67,0,0,1,.91-.73,2.84,2.84,0,0,1,1.24-.27,2.78,2.78,0,0,1,1.24.27,2.67,2.67,0,0,1,.91.73A2.94,2.94,0,0,1,131.34,5a4.59,4.59,0,0,1,.2,1.38Z"/><rect class="cls-2" x="133.14" width="1.62" height="9.8"/><path class="cls-1" d="M140.56,9.8a6.3,6.3,0,0,1-1.47.16,2.91,2.91,0,0,1-2-.6,2.36,2.36,0,0,1-.69-1.91V3.07H138V7.49a.94.94,0,0,0,1.07,1.07,4.07,4.07,0,0,0,.58,0A2.7,2.7,0,0,0,140,8.4V3.07h1.62v6.4a4.45,4.45,0,0,1-1.11.33Z"/><path class="cls-1" d="M145.78,9.84a4.69,4.69,0,0,1-.58,0,1.71,1.71,0,0,1-1.38-.53,2.43,2.43,0,0,1-.44-1.58V4.33h-.82V3.07h.82V1.58l1.6-.49v2h1.2V4.33H145V7.67a.67.67,0,0,0,.22.58.78.78,0,0,0,.51.16,1.11,1.11,0,0,0,.27,0l.2-.07V9.71a2.12,2.12,0,0,1-.4.13Z"/><path class="cls-1" d="M147.54,9.8V3.07h1.64V9.8Zm1.76-8.73a.93.93,0,1,1-1.87,0,.88.88,0,0,1,.93-.89.92.92,0,0,1,.67.24.89.89,0,0,1,.27.64Z"/><path class="cls-1" d="M154.76,6.42a3.53,3.53,0,0,0-.31-1.6,1,1,0,0,0-1-.56,1,1,0,0,0-1,.56,3.24,3.24,0,0,0-.33,1.6A3.15,3.15,0,0,0,152.51,8a1,1,0,0,0,1,.56,1,1,0,0,0,1-.56,3.43,3.43,0,0,0,.31-1.58Zm1.64,0a4.64,4.64,0,0,1-.2,1.4,3,3,0,0,1-.58,1.11,2.57,2.57,0,0,1-2.13,1,2.87,2.87,0,0,1-1.27-.27,3,3,0,0,1-.91-.76,2.89,2.89,0,0,1-.56-1.11,4.64,4.64,0,0,1-.2-1.4,4.59,4.59,0,0,1,.2-1.38,2.9,2.9,0,0,1,.56-1.11,2.66,2.66,0,0,1,.91-.73,2.87,2.87,0,0,1,1.27-.27,2.75,2.75,0,0,1,1.22.27,2.47,2.47,0,0,1,.91.73A3,3,0,0,1,156.2,5a4.59,4.59,0,0,1,.2,1.38Z"/><path class="cls-1" d="M161.72,9.8V5.38a1,1,0,0,0-.29-.8,1.08,1.08,0,0,0-.84-.29,2.08,2.08,0,0,0-.53,0,1.84,1.84,0,0,0-.44.11V9.8H158V3.4a6.78,6.78,0,0,1,2.56-.47,3.22,3.22,0,0,1,2.13.58,2.11,2.11,0,0,1,.67,1.69V9.8Z"/><rect class="cls-2" x="171.45" y="6.42" width="57.65" height="1.4"/><polygon class="cls-1" points="200.85 20.38 200.85 14.29 179.58 14.29 179.58 45.53 200.85 45.53 200.85 39.45 185.98 39.45 185.98 32.56 198.34 32.56 198.34 26.18 185.98 26.18 185.98 20.38 200.85 20.38"/><path class="cls-1" d="M169.25,7.8a1.89,1.89,0,0,1-.64,1.49,3,3,0,0,1-1.93.56,4,4,0,0,1-1.13-.16,3.21,3.21,0,0,1-.89-.36l.56-1.22a.7.7,0,0,0,.29.13,1.36,1.36,0,0,0,.4.16c.09,0,.24,0,.38.11h.36a1,1,0,0,0,.69-.2.59.59,0,0,0,.31-.51.55.55,0,0,0-.31-.53,1.65,1.65,0,0,0-.69-.36l-.6-.29a2.53,2.53,0,0,1-.58-.36,5.15,5.15,0,0,1-.44-.53,1.85,1.85,0,0,1-.16-.84,1.81,1.81,0,0,1,.6-1.4A2.73,2.73,0,0,1,167.18,3a3.65,3.65,0,0,1,1.93.49l-.51,1.13a1.5,1.5,0,0,0-.53-.24,2.29,2.29,0,0,0-.71-.16.84.84,0,0,0-.62.2.73.73,0,0,0-.27.51.6.6,0,0,0,.27.53,3.4,3.4,0,0,0,.69.36,3.82,3.82,0,0,0,.64.24,1.42,1.42,0,0,1,.58.4,1.76,1.76,0,0,1,.47.53,2.5,2.5,0,0,1,.13.84Z"/></g></g></svg>